<svg xmlns="http://www.w3.org/2000/svg" width="96" height="96" viewBox="0 0 96 96"><path d="M69.94 51.06c-.147.175-.386.297-.625.323h-.086c-.24 0-.45-.06-.63-.207L47.998 34l-20.6 17.176c-.21.148-.448.24-.715.207-.237-.026-.475-.148-.627-.324L24.21 48.85c-.327-.385-.267-1.01.12-1.34l21.403-17.83c1.254-1.043 3.276-1.043 4.527 0l7.266 6.074V29.95c0-.537.418-.953.95-.953h5.716c.54 0 .956.417.956.953v12.146l6.52 5.418c.39.328.443.955.12 1.34l-1.848 2.205zM65.148 65.2c0 1.04-.865 1.9-1.906 1.9H51.808V55.672h-7.62v11.43h-11.43c-1.043 0-1.906-.862-1.906-1.9V50.906c0-.055.03-.113.03-.18l17.116-14.11 17.118 14.11c.032.066.032.125.032.18V65.2z" fill="#fff"/></svg>