<svg xmlns="http://www.w3.org/2000/svg" width="96" height="96" viewBox="0 0 96 96"><g fill="#fff"><path d="M70.125 35.475c-1.25-1.25-2.758-1.875-4.524-1.875H60l-1.274-3.4c-.316-.817-.896-1.52-1.737-2.113s-1.707-.887-2.59-.887H41.6c-.884 0-1.746.296-2.588.888s-1.42 1.296-1.737 2.113L36 33.6h-5.6c-1.767 0-3.275.625-4.525 1.875C24.625 36.725 24 38.233 24 40v22.4c0 1.767.625 3.275 1.875 4.524 1.25 1.25 2.758 1.876 4.525 1.876h35.2c1.768 0 3.275-.625 4.525-1.876C71.375 65.676 72 64.167 72 62.4V40c0-1.767-.625-3.275-1.875-4.525zM55.913 59.113C53.72 61.305 51.083 62.4 48 62.4s-5.72-1.096-7.913-3.287S36.8 54.283 36.8 51.2c0-3.083 1.095-5.72 3.287-7.912S44.917 40 48 40s5.72 1.096 7.913 3.288c2.19 2.19 3.287 4.83 3.287 7.913s-1.096 5.72-3.287 7.913zM48 44c-1.983 0-3.68.704-5.088 2.113-1.408 1.41-2.112 3.104-2.112 5.088 0 1.983.704 3.68 2.112 5.088C44.322 57.696 46.017 58.4 48 58.4s3.68-.704 5.088-2.112C54.496 54.88 55.2 53.184 55.2 51.2c0-1.983-.704-3.68-2.112-5.087C51.678 44.703 49.983 44 48 44z"/></g></svg>