<svg xmlns="http://www.w3.org/2000/svg" width="96" height="96" viewBox="0 0 96 96"><path fill="#fff" d="M70.935 65.71l-9.896-9.894c2.385-3.44 3.577-7.277 3.577-11.508 0-2.75-.536-5.38-1.6-7.89-1.07-2.51-2.515-4.673-4.33-6.49-1.815-1.817-3.98-3.26-6.49-4.327-2.51-1.068-5.14-1.6-7.89-1.6s-5.38.53-7.89 1.6c-2.51 1.066-4.67 2.51-6.49 4.327-1.816 1.817-3.26 3.98-4.326 6.49-1.067 2.51-1.6 5.142-1.6 7.892s.533 5.378 1.602 7.887c1.066 2.51 2.51 4.676 4.327 6.49s3.98 3.26 6.49 4.33c2.51 1.064 5.14 1.6 7.89 1.6 4.23 0 8.068-1.19 11.507-3.577l9.895 9.862c.692.732 1.558 1.098 2.6 1.098.995 0 1.864-.365 2.592-1.098.73-.727 1.096-1.596 1.096-2.592 0-1.02-.353-1.885-1.065-2.6zM53.44 53.44c-2.53 2.527-5.575 3.793-9.132 3.793-3.56 0-6.6-1.265-9.13-3.792-2.528-2.53-3.794-5.573-3.794-9.13 0-3.56 1.266-6.6 3.794-9.13 2.53-2.528 5.57-3.794 9.13-3.794 3.558 0 6.6 1.266 9.13 3.794 2.527 2.53 3.793 5.57 3.793 9.13 0 3.558-1.264 6.6-3.79 9.13z"/></svg>