<svg xmlns="http://www.w3.org/2000/svg" width="96" height="96" viewBox="0 0 96 96"><g fill="#fff"><path d="M45.032 42.573l-19.92 19.92c-.74.74-1.112 1.63-1.112 2.66 0 1.056.37 1.932 1.113 2.635l3.1 3.157c.76.724 1.647 1.084 2.66 1.084 1.034 0 1.912-.36 2.633-1.085l19.95-19.948c-1.91-.76-3.603-1.875-5.075-3.35-1.47-1.47-2.59-3.162-3.348-5.074zM34.062 64.6c-.37.37-.81.554-1.316.554-.507 0-.946-.183-1.316-.553-.37-.37-.556-.81-.556-1.316s.185-.947.556-1.317c.37-.37.81-.555 1.316-.555s.946.185 1.317.555c.37.37.555.812.555 1.317s-.184.946-.555 1.317zM71.753 37.543c-.168-.195-.396-.292-.688-.292-.174 0-.863.346-2.062 1.04-1.2.69-2.52 1.48-3.964 2.37l-2.31 1.417-5.648-3.13v-6.55l8.57-4.945c.313-.215.468-.486.468-.82 0-.33-.154-.603-.468-.818-.858-.585-1.904-1.04-3.144-1.36-1.238-.323-2.422-.482-3.554-.482-3.607 0-6.692 1.283-9.256 3.846-2.566 2.565-3.848 5.65-3.848 9.258 0 3.606 1.283 6.694 3.848 9.257 2.563 2.565 5.648 3.846 9.256 3.846 2.75 0 5.27-.815 7.563-2.443 2.288-1.63 3.894-3.75 4.81-6.362.45-1.31.673-2.34.673-3.102.002-.292-.082-.536-.247-.73z"/></g></svg>