<svg xmlns="http://www.w3.org/2000/svg" width="96" height="96" viewBox="0 0 96 96"><path fill="#fff" d="M59.313 28.688C56.186 25.562 52.417 24 47.998 24c-4.416 0-8.187 1.562-11.312 4.688C33.56 31.813 32 35.583 32 39.998c0 2.272.342 4.137 1.03 5.597L44.435 69.78c.313.69.797 1.23 1.453 1.63.657.39 1.36.59 2.11.59.75 0 1.455-.2 2.11-.592.657-.398 1.15-.938 1.483-1.63l11.38-24.183C63.655 44.135 64 42.27 64 40c0-4.417-1.564-8.187-4.687-11.312zm-5.66 16.968C52.094 47.218 50.21 48 48 48c-2.208 0-4.093-.782-5.655-2.344C40.78 44.094 40 42.208 40 40c0-2.208.78-4.094 2.343-5.655C43.905 32.78 45.79 32 47.998 32c2.21 0 4.097.78 5.656 2.345 1.562 1.562 2.344 3.447 2.344 5.654s-.78 4.094-2.344 5.656z"/></svg>